# xmcd
#
# Track frame offsets:
#	150
#	12799
#	28388
#	38326
#	50752
#	66594
#	80070
#	89693
#	102452
#	117475
#	130553
#	138925
#
# Disc length: 2049 seconds
#
# Revision: 0
# Processed by: cddbd v1.5.2PL0 Copyright (c) Steve Scherf et al.
# Submitted via: dBpowerAMP V4.0
#
DISCID=a907ff0c
DTITLE=Kim McLean - God's Lyrics
DYEAR=2006
DGENRE=Worship
TTITLE0=Blessing - Numbers 6:24-26 
TTITLE1=Jude's Doxology - Jude 24-25 
TTITLE2=Flesh - John 1:14 
TTITLE3=Being - Acts 17:28 
TTITLE4=Stars - Daniel 12:3 
TTITLE5=Hear - Deuteronomy 6:4-7 
TTITLE6=Love - John 3:16 
TTITLE7=Resurrection - John 11:25-26 
TTITLE8=Call - Jeremiah 33:3 
TTITLE9=Waters - Song of Solomon 8:7 
TTITLE10=Trust - Proverbs 3:5-6
TTITLE11=To The Lamb - Revelation 5:13
EXTD=Record label: Hippie Chick Twang
EXTT0=
EXTT1=
EXTT2=
EXTT3=
EXTT4=
EXTT5=
EXTT6=
EXTT7=
EXTT8=
EXTT9=
EXTT10=
EXTT11=
PLAYORDER=
